<svg width="125" height="119" viewBox="0 0 125 119" fill="none" xmlns="http://www.w3.org/2000/svg">
<path d="M62.9714 83.7528V118.433L4.82373 83.7528L4.82373 49.432L62.9714 83.7528Z" fill="white"/>
<path d="M62.9712 118.433V82.2073L89.9247 35.5598L116.842 51.1209V87.3465L62.9712 118.433Z" fill="#EFEFEF"/>
<path d="M51.3384 84.3079L36.8958 75.9783V92.6374L51.3384 100.967V84.3079Z" fill="#EFEFEF"/>
<path d="M51.3384 84.3078L52.2679 83.7716V100.431L51.3384 100.967V84.3078Z" fill="#DEDEDE"/>
<path d="M36.8958 75.9783L37.8252 75.442L52.2679 83.7716L51.3384 84.3078L36.8958 75.9783Z" fill="white"/>
<path d="M49.7298 85.2373L38.5046 78.7667V91.7079L49.7298 98.2142V85.2373Z" fill="#A1D72D"/>
<path d="M49.7298 98.2142V96.9988L39.5414 91.1002L38.5046 91.7079L49.7298 98.2142Z" fill="white"/>
<path d="M38.5046 91.7079L39.5414 91.1002V79.3387L38.5046 78.7667V91.7079Z" fill="#DEDEDE"/>
<path d="M45.2612 82.6633L44.1172 81.9841V93.7455L45.2612 94.4247V82.6633Z" fill="#DEDEDE"/>
<path d="M25.9565 69.6507L11.5139 61.3212V77.9802L25.9565 86.3098V69.6507Z" fill="#EFEFEF"/>
<path d="M25.9568 69.6508L26.8863 69.1146V85.8094L25.9568 86.3099V69.6508Z" fill="#DEDEDE"/>
<path d="M11.5139 61.3212L12.4434 60.785L26.886 69.1145L25.9565 69.6507L11.5139 61.3212Z" fill="white"/>
<path d="M24.3478 70.5803L13.1226 64.1097V77.0508L24.3478 83.5572V70.5803Z" fill="#A1D72D"/>
<path d="M24.3478 83.5571V82.3417L14.1593 76.4431L13.1226 77.0508L24.3478 83.5571Z" fill="white"/>
<path d="M13.1226 77.0508L14.1593 76.4431V64.6817L13.1226 64.1097V77.0508Z" fill="#DEDEDE"/>
<path d="M19.8793 68.0063L18.7354 67.327V79.0885L19.8793 79.7677V68.0063Z" fill="#DEDEDE"/>
<path d="M83.9419 74.584L82.8694 73.9406V106.651L83.9419 107.294V74.584Z" fill="#D8D8D9"/>
<path d="M101.244 64.61L100.136 63.9665L82.8694 73.9405L83.9419 74.584L101.244 64.61Z" fill="#EFEFF4"/>
<path d="M83.9419 74.5842V107.295L85.8723 106.186V75.6924L99.314 67.9348V98.6075L101.244 97.4993V64.6102L83.9419 74.5842Z" fill="#E4E4E4"/>
<path d="M99.3139 98.6075L98.0984 97.8925V68.6497L99.3139 67.9348V98.6075Z" fill="#D8D8D9"/>
<path d="M98.0985 97.8925V68.6498L85.8723 75.6923V104.935L98.0985 97.8925Z" fill="#C8C8C8"/>
<path d="M31.8949 1.73485e-05L0 55.2421L61.2249 90.5913L93.1198 35.3492L31.8949 1.73485e-05Z" fill="#C3F84F"/>
<path d="M93.1231 35.3441L61.2102 90.5808L62.7915 91.5152L93.1231 39.0457L123.419 56.5116L125 53.7444L93.1231 35.3441Z" fill="#A1D72D"/>
</svg>
